<svg width="363" height="36" viewBox="0 0 363 36" fill="none" xmlns="http://www.w3.org/2000/svg">
<path d="M8.05383 16.472H11.4378C12.1098 16.472 12.7338 16.376 13.3098 16.184C13.9098 15.968 14.3778 15.692 14.7138 15.356C15.1938 14.876 15.6018 14.3 15.9378 13.628C16.2738 12.932 16.4418 12.14 16.4418 11.252C16.4418 10.46 16.2738 9.692 15.9378 8.948C15.6258 8.18 15.2178 7.532 14.7138 7.004C14.3298 6.596 13.8378 6.284 13.2378 6.068C12.6378 5.828 11.9898 5.708 11.2938 5.708H8.05383V16.472ZM13.3098 19.1H8.05383V26.156L11.4738 26.912V29H0.349825V26.912L3.37383 26.156V5.924L0.349825 5.168V3.08H13.3458C14.4738 3.08 15.5058 3.236 16.4418 3.548C17.3778 3.836 18.1458 4.256 18.7458 4.808C19.5858 5.552 20.2458 6.452 20.7258 7.508C21.2298 8.54 21.4818 9.632 21.4818 10.784C21.4818 11.96 21.2178 13.16 20.6898 14.384C20.1858 15.584 19.5138 16.556 18.6738 17.3C18.0498 17.948 17.2698 18.416 16.3338 18.704C15.3978 18.968 14.3898 19.1 13.3098 19.1ZM44.0085 19.784H31.4445C31.4445 21.416 31.6845 22.772 32.1645 23.852C32.5485 24.668 33.0645 25.304 33.7125 25.76C34.3605 26.192 35.1645 26.408 36.1245 26.408C37.1805 26.408 38.2245 26.168 39.2565 25.688C40.3125 25.208 41.2125 24.488 41.9565 23.528L43.9005 25.04C43.0605 26.24 41.9205 27.26 40.4805 28.1C39.0645 28.94 37.3125 29.36 35.2245 29.36C33.4725 29.36 31.9605 29.012 30.6885 28.316C29.4165 27.596 28.4445 26.552 27.7725 25.184C27.4125 24.44 27.1485 23.612 26.9805 22.7C26.8125 21.788 26.7285 20.804 26.7285 19.748C26.7285 16.388 27.4965 13.796 29.0325 11.972C30.5925 10.124 32.7885 9.2 35.6205 9.2C38.2365 9.2 40.3005 9.968 41.8125 11.504C43.3485 13.016 44.1165 15.116 44.1165 17.804C44.1165 18.068 44.1045 18.332 44.0805 18.596C44.0805 18.836 44.0565 19.232 44.0085 19.784ZM35.5485 11.684C33.0765 11.684 31.7205 13.616 31.4805 17.48H39.4005V16.544C39.4005 14.984 39.0525 13.784 38.3565 12.944C37.6845 12.104 36.7485 11.684 35.5485 11.684ZM60.8444 12.188C60.5804 12.188 60.2804 12.356 59.9444 12.692C59.6084 13.004 59.2964 13.376 59.0084 13.808C58.7444 14.24 58.5524 14.624 58.4324 14.96C58.1444 15.776 57.8924 16.616 57.6764 17.48C57.4604 18.344 57.3524 19.4 57.3524 20.648V26.3L61.2404 26.984V29H50.0084V26.984L52.7804 26.3V11.72L50.0084 11.036V9.56H56.2724L57.0644 14.312H57.2084C57.7604 12.68 58.5044 11.42 59.4404 10.532C60.3764 9.644 61.4084 9.2 62.5364 9.2C63.4724 9.2 64.2524 9.5 64.8764 10.1C65.5004 10.676 65.8124 11.456 65.8124 12.44C65.8124 13.16 65.5964 13.82 65.1644 14.42C64.7324 14.996 64.1204 15.284 63.3284 15.284C62.3684 15.284 61.6844 15.068 61.2764 14.636C60.8684 14.18 60.6644 13.688 60.6644 13.16C60.6644 12.992 60.6644 12.872 60.6644 12.8C60.6884 12.704 60.7484 12.5 60.8444 12.188ZM78.3632 27.164C79.5632 27.164 80.5832 26.936 81.4232 26.48C82.2872 26.024 82.7192 25.388 82.7192 24.572C82.7192 23.924 82.4552 23.384 81.9272 22.952C81.4232 22.52 80.7752 22.16 79.9832 21.872C79.2152 21.584 78.4232 21.32 77.6072 21.08C76.6232 20.768 75.6752 20.372 74.7632 19.892C73.8512 19.412 73.1072 18.776 72.5312 17.984C71.9552 17.168 71.6672 16.148 71.6672 14.924C71.6672 13.196 72.2912 11.816 73.5392 10.784C74.8112 9.728 76.5992 9.2 78.9032 9.2C81.1112 9.2 82.8632 9.668 84.1592 10.604C85.4792 11.516 86.1392 12.704 86.1392 14.168C86.1392 14.984 85.9112 15.62 85.4552 16.076C85.0232 16.508 84.4232 16.724 83.6552 16.724C82.8872 16.724 82.2872 16.544 81.8552 16.184C81.4232 15.8 81.2072 15.356 81.2072 14.852C81.2072 14.444 81.3272 14.048 81.5672 13.664C81.8072 13.28 82.1192 13.004 82.5032 12.836C82.1912 12.38 81.7472 12.032 81.1712 11.792C80.5952 11.528 79.8872 11.396 79.0472 11.396C77.9432 11.396 77.1032 11.636 76.5272 12.116C75.9752 12.572 75.6992 13.22 75.6992 14.06C75.6992 14.684 75.8432 15.212 76.1312 15.644C76.4192 16.052 76.8152 16.388 77.3192 16.652C77.8472 16.916 78.4592 17.156 79.1552 17.372C80.1152 17.66 81.0512 17.96 81.9632 18.272C82.8992 18.584 83.7392 18.968 84.4832 19.424C85.2272 19.88 85.8152 20.444 86.2472 21.116C86.7032 21.764 86.9312 22.556 86.9312 23.492C86.9312 24.74 86.5472 25.808 85.7792 26.696C85.0112 27.56 83.9672 28.22 82.6472 28.676C81.3512 29.132 79.8872 29.36 78.2552 29.36C75.9752 29.36 74.1872 28.94 72.8912 28.1C71.5952 27.236 70.9472 26.096 70.9472 24.68C70.9472 23.696 71.2232 22.928 71.7752 22.376C72.3272 21.824 72.9872 21.548 73.7552 21.548C74.3312 21.548 74.8592 21.716 75.3392 22.052C75.8432 22.364 76.0952 22.82 76.0952 23.42C76.0952 23.852 75.9632 24.272 75.6992 24.68C75.4352 25.088 75.1352 25.388 74.7992 25.58C75.0392 25.964 75.4352 26.324 75.9872 26.66C76.5392 26.996 77.3312 27.164 78.3632 27.164ZM111.83 19.28C111.83 20.816 111.602 22.268 111.146 23.636C110.714 24.98 110.078 26.108 109.238 27.02C108.446 27.86 107.486 28.46 106.358 28.82C105.254 29.18 103.958 29.36 102.47 29.36C100.982 29.36 99.6737 29.18 98.5457 28.82C97.4417 28.46 96.4937 27.86 95.7017 27.02C94.8617 26.108 94.2137 24.98 93.7577 23.636C93.3257 22.268 93.1097 20.816 93.1097 19.28C93.1097 17.744 93.3257 16.292 93.7577 14.924C94.2137 13.556 94.8617 12.428 95.7017 11.54C96.4937 10.7 97.4417 10.1 98.5457 9.74C99.6737 9.38 100.982 9.2 102.47 9.2C103.958 9.2 105.254 9.38 106.358 9.74C107.486 10.1 108.446 10.7 109.238 11.54C110.078 12.428 110.714 13.556 111.146 14.924C111.602 16.292 111.83 17.744 111.83 19.28ZM99.1937 25.508C99.5297 25.988 99.9617 26.348 100.49 26.588C101.042 26.828 101.702 26.948 102.47 26.948C103.238 26.948 103.898 26.828 104.45 26.588C105.002 26.348 105.434 25.988 105.746 25.508C106.514 24.332 106.898 22.256 106.898 19.28C106.898 17.768 106.802 16.496 106.61 15.464C106.418 14.432 106.13 13.628 105.746 13.052C105.434 12.572 105.002 12.212 104.45 11.972C103.898 11.732 103.238 11.612 102.47 11.612C101.702 11.612 101.042 11.732 100.49 11.972C99.9617 12.212 99.5297 12.572 99.1937 13.052C98.4257 14.228 98.0417 16.304 98.0417 19.28C98.0417 22.256 98.4257 24.332 99.1937 25.508ZM120.641 26.3V12.26L117.869 11.576V9.56H124.133L124.925 13.16H125.069C125.789 11.936 126.761 10.976 127.985 10.28C129.209 9.56 130.517 9.2 131.909 9.2C133.901 9.2 135.377 9.848 136.337 11.144C136.817 11.816 137.153 12.764 137.345 13.988C137.561 15.188 137.669 16.82 137.669 18.884V26.3L140.441 26.984V29H130.685V26.984L133.097 26.3V19.352C133.097 17.912 133.049 16.796 132.953 16.004C132.881 15.188 132.737 14.54 132.521 14.06C132.257 13.436 131.897 13.004 131.441 12.764C130.985 12.524 130.445 12.404 129.821 12.404C128.645 12.404 127.649 12.788 126.833 13.556C125.849 14.468 125.309 15.872 125.213 17.768V26.3L127.625 26.984V29H117.869V26.984L120.641 26.3ZM145.691 24.752C145.691 22.76 146.603 21.224 148.427 20.144C150.251 19.04 153.119 18.188 157.031 17.588C156.935 16.388 156.803 15.464 156.635 14.816C156.467 14.168 156.251 13.616 155.987 13.16C155.675 12.608 155.291 12.164 154.835 11.828C154.379 11.492 153.803 11.324 153.107 11.324C152.603 11.324 152.135 11.42 151.703 11.612C151.295 11.804 151.019 12.068 150.875 12.404C151.211 12.572 151.439 12.836 151.559 13.196C151.703 13.556 151.775 13.868 151.775 14.132C151.775 14.732 151.511 15.272 150.983 15.752C150.455 16.208 149.819 16.436 149.075 16.436C148.331 16.436 147.743 16.196 147.311 15.716C146.879 15.212 146.663 14.588 146.663 13.844C146.663 12.86 147.011 12.02 147.707 11.324C148.403 10.628 149.291 10.1 150.371 9.74C151.451 9.38 152.543 9.2 153.647 9.2C154.775 9.2 155.783 9.368 156.671 9.704C157.583 10.016 158.315 10.412 158.867 10.892C160.763 12.572 161.711 15.236 161.711 18.884V23.564C161.711 24.74 161.783 25.556 161.927 26.012C162.095 26.468 162.443 26.696 162.971 26.696H164.591V28.316C162.383 29.012 160.715 29.36 159.587 29.36C158.795 29.36 158.267 29.096 158.003 28.568C157.739 28.04 157.607 26.996 157.607 25.436H157.463C156.719 26.66 155.735 27.62 154.511 28.316C153.287 29.012 151.967 29.36 150.551 29.36C149.039 29.36 147.851 28.952 146.987 28.136C146.123 27.32 145.691 26.192 145.691 24.752ZM152.747 26.732C153.251 26.732 153.803 26.564 154.403 26.228C155.027 25.892 155.567 25.424 156.023 24.824C156.287 24.488 156.539 24.008 156.779 23.384C157.019 22.76 157.139 22.016 157.139 21.152C157.139 20.864 157.127 20.54 157.103 20.18C157.079 19.82 157.043 19.484 156.995 19.172C155.339 19.532 154.031 19.916 153.071 20.324C152.135 20.732 151.463 21.224 151.055 21.8C150.671 22.352 150.479 23.036 150.479 23.852C150.479 24.884 150.719 25.628 151.199 26.084C151.679 26.516 152.195 26.732 152.747 26.732ZM171.532 26.264V3.656L168.76 2.972V0.919999H176.104V26.264L178.876 26.948V29H168.76V26.948L171.532 26.264ZM204.598 16.472H207.982C208.654 16.472 209.278 16.376 209.854 16.184C210.454 15.968 210.922 15.692 211.258 15.356C211.738 14.876 212.146 14.3 212.482 13.628C212.818 12.932 212.986 12.14 212.986 11.252C212.986 10.46 212.818 9.692 212.482 8.948C212.17 8.18 211.762 7.532 211.258 7.004C210.874 6.596 210.382 6.284 209.782 6.068C209.182 5.828 208.534 5.708 207.838 5.708H204.598V16.472ZM209.854 19.1H204.598V26.156L208.018 26.912V29H196.894V26.912L199.918 26.156V5.924L196.894 5.168V3.08H209.89C211.018 3.08 212.05 3.236 212.986 3.548C213.922 3.836 214.69 4.256 215.29 4.808C216.13 5.552 216.79 6.452 217.27 7.508C217.774 8.54 218.026 9.632 218.026 10.784C218.026 11.96 217.762 13.16 217.234 14.384C216.73 15.584 216.058 16.556 215.218 17.3C214.594 17.948 213.814 18.416 212.878 18.704C211.942 18.968 210.934 19.1 209.854 19.1ZM234.101 12.188C233.837 12.188 233.537 12.356 233.201 12.692C232.865 13.004 232.553 13.376 232.265 13.808C232.001 14.24 231.809 14.624 231.689 14.96C231.401 15.776 231.149 16.616 230.933 17.48C230.717 18.344 230.609 19.4 230.609 20.648V26.3L234.497 26.984V29H223.265V26.984L226.037 26.3V11.72L223.265 11.036V9.56H229.529L230.321 14.312H230.465C231.017 12.68 231.761 11.42 232.697 10.532C233.633 9.644 234.665 9.2 235.793 9.2C236.729 9.2 237.509 9.5 238.133 10.1C238.757 10.676 239.069 11.456 239.069 12.44C239.069 13.16 238.853 13.82 238.421 14.42C237.989 14.996 237.377 15.284 236.585 15.284C235.625 15.284 234.941 15.068 234.533 14.636C234.125 14.18 233.921 13.688 233.921 13.16C233.921 12.992 233.921 12.872 233.921 12.8C233.945 12.704 234.005 12.5 234.101 12.188ZM262.784 19.28C262.784 20.816 262.556 22.268 262.1 23.636C261.668 24.98 261.032 26.108 260.192 27.02C259.4 27.86 258.44 28.46 257.312 28.82C256.208 29.18 254.912 29.36 253.424 29.36C251.936 29.36 250.628 29.18 249.5 28.82C248.396 28.46 247.448 27.86 246.656 27.02C245.816 26.108 245.168 24.98 244.712 23.636C244.28 22.268 244.064 20.816 244.064 19.28C244.064 17.744 244.28 16.292 244.712 14.924C245.168 13.556 245.816 12.428 246.656 11.54C247.448 10.7 248.396 10.1 249.5 9.74C250.628 9.38 251.936 9.2 253.424 9.2C254.912 9.2 256.208 9.38 257.312 9.74C258.44 10.1 259.4 10.7 260.192 11.54C261.032 12.428 261.668 13.556 262.1 14.924C262.556 16.292 262.784 17.744 262.784 19.28ZM250.148 25.508C250.484 25.988 250.916 26.348 251.444 26.588C251.996 26.828 252.656 26.948 253.424 26.948C254.192 26.948 254.852 26.828 255.404 26.588C255.956 26.348 256.388 25.988 256.7 25.508C257.468 24.332 257.852 22.256 257.852 19.28C257.852 17.768 257.756 16.496 257.564 15.464C257.372 14.432 257.084 13.628 256.7 13.052C256.388 12.572 255.956 12.212 255.404 11.972C254.852 11.732 254.192 11.612 253.424 11.612C252.656 11.612 251.996 11.732 251.444 11.972C250.916 12.212 250.484 12.572 250.148 13.052C249.38 14.228 248.996 16.304 248.996 19.28C248.996 22.256 249.38 24.332 250.148 25.508ZM275.666 9.56V25.94C275.666 27.716 275.606 29.108 275.486 30.116C275.39 31.148 275.186 31.988 274.874 32.636C274.346 33.764 273.638 34.58 272.75 35.084C271.886 35.588 270.806 35.84 269.51 35.84C267.974 35.84 266.738 35.54 265.802 34.94C264.842 34.364 264.362 33.524 264.362 32.42C264.362 31.724 264.578 31.112 265.01 30.584C265.442 30.08 266.066 29.828 266.882 29.828C267.578 29.828 268.13 30.044 268.538 30.476C268.97 30.908 269.186 31.436 269.186 32.06C269.186 32.3 269.126 32.552 269.006 32.816C268.91 33.08 268.754 33.284 268.538 33.428C268.586 33.692 268.73 33.848 268.97 33.896C269.234 33.944 269.414 33.968 269.51 33.968C270.038 33.968 270.434 33.632 270.698 32.96C270.962 32.288 271.094 31.076 271.094 29.324V12.26L268.322 11.576V9.56H275.666ZM270.806 4.088C270.806 3.32 271.034 2.696 271.49 2.216C271.97 1.736 272.63 1.496 273.47 1.496C274.31 1.496 274.97 1.736 275.45 2.216C275.93 2.696 276.17 3.32 276.17 4.088C276.17 4.832 275.93 5.444 275.45 5.924C274.994 6.404 274.334 6.644 273.47 6.644C272.606 6.644 271.946 6.416 271.49 5.96C271.034 5.48 270.806 4.856 270.806 4.088ZM300.607 19.784H288.043C288.043 21.416 288.283 22.772 288.763 23.852C289.147 24.668 289.663 25.304 290.311 25.76C290.959 26.192 291.763 26.408 292.723 26.408C293.779 26.408 294.823 26.168 295.855 25.688C296.911 25.208 297.811 24.488 298.555 23.528L300.499 25.04C299.659 26.24 298.519 27.26 297.079 28.1C295.663 28.94 293.911 29.36 291.823 29.36C290.071 29.36 288.559 29.012 287.287 28.316C286.015 27.596 285.043 26.552 284.371 25.184C284.011 24.44 283.747 23.612 283.579 22.7C283.411 21.788 283.327 20.804 283.327 19.748C283.327 16.388 284.095 13.796 285.631 11.972C287.191 10.124 289.387 9.2 292.219 9.2C294.835 9.2 296.899 9.968 298.411 11.504C299.947 13.016 300.715 15.116 300.715 17.804C300.715 18.068 300.703 18.332 300.679 18.596C300.679 18.836 300.655 19.232 300.607 19.784ZM292.147 11.684C289.675 11.684 288.319 13.616 288.079 17.48H295.999V16.544C295.999 14.984 295.651 13.784 294.955 12.944C294.283 12.104 293.347 11.684 292.147 11.684ZM316.363 9.2C317.851 9.2 319.171 9.44 320.323 9.92C321.475 10.376 322.375 11.024 323.023 11.864C323.695 12.704 324.031 13.688 324.031 14.816C324.031 15.896 323.743 16.724 323.167 17.3C322.591 17.852 321.883 18.128 321.043 18.128C320.107 18.128 319.447 17.84 319.063 17.264C318.703 16.688 318.523 16.1 318.523 15.5C318.523 14.9 318.667 14.384 318.955 13.952C319.267 13.496 319.723 13.184 320.323 13.016C320.011 12.584 319.507 12.236 318.811 11.972C318.139 11.708 317.383 11.576 316.543 11.576C315.031 11.576 313.855 12.128 313.015 13.232C312.175 14.336 311.755 16.316 311.755 19.172C311.755 20.468 311.839 21.488 312.007 22.232C312.175 22.976 312.403 23.624 312.691 24.176C313.075 24.872 313.567 25.424 314.167 25.832C314.767 26.216 315.535 26.408 316.471 26.408C317.455 26.408 318.487 26.18 319.567 25.724C320.671 25.244 321.583 24.512 322.303 23.528L324.247 25.04C323.143 26.576 321.847 27.68 320.359 28.352C318.871 29.024 317.287 29.36 315.607 29.36C313.831 29.36 312.319 29.024 311.071 28.352C309.847 27.656 308.887 26.648 308.191 25.328C307.327 23.72 306.895 21.764 306.895 19.46C306.895 17.372 307.267 15.56 308.011 14.024C308.779 12.488 309.871 11.3 311.287 10.46C312.703 9.62 314.395 9.2 316.363 9.2ZM328.995 11.9V10.064L332.523 9.56L332.955 5.096L337.059 4.52V9.56H341.667V11.9H337.059V23.672C337.059 24.488 337.071 25.052 337.095 25.364C337.119 25.652 337.167 25.892 337.239 26.084C337.311 26.228 337.443 26.336 337.635 26.408C337.827 26.48 338.139 26.516 338.571 26.516H341.091V28.1C339.699 28.532 338.463 28.844 337.383 29.036C336.327 29.252 335.487 29.36 334.863 29.36C333.783 29.36 333.087 28.916 332.775 28.028C332.679 27.74 332.607 27.368 332.559 26.912C332.511 26.456 332.487 25.784 332.487 24.896V11.9H328.995ZM354.312 27.164C355.512 27.164 356.532 26.936 357.372 26.48C358.236 26.024 358.668 25.388 358.668 24.572C358.668 23.924 358.404 23.384 357.876 22.952C357.372 22.52 356.724 22.16 355.932 21.872C355.164 21.584 354.372 21.32 353.556 21.08C352.572 20.768 351.624 20.372 350.712 19.892C349.8 19.412 349.056 18.776 348.48 17.984C347.904 17.168 347.616 16.148 347.616 14.924C347.616 13.196 348.24 11.816 349.488 10.784C350.76 9.728 352.548 9.2 354.852 9.2C357.06 9.2 358.812 9.668 360.108 10.604C361.428 11.516 362.088 12.704 362.088 14.168C362.088 14.984 361.86 15.62 361.404 16.076C360.972 16.508 360.372 16.724 359.604 16.724C358.836 16.724 358.236 16.544 357.804 16.184C357.372 15.8 357.156 15.356 357.156 14.852C357.156 14.444 357.276 14.048 357.516 13.664C357.756 13.28 358.068 13.004 358.452 12.836C358.14 12.38 357.696 12.032 357.12 11.792C356.544 11.528 355.836 11.396 354.996 11.396C353.892 11.396 353.052 11.636 352.476 12.116C351.924 12.572 351.648 13.22 351.648 14.06C351.648 14.684 351.792 15.212 352.08 15.644C352.368 16.052 352.764 16.388 353.268 16.652C353.796 16.916 354.408 17.156 355.104 17.372C356.064 17.66 357 17.96 357.912 18.272C358.848 18.584 359.688 18.968 360.432 19.424C361.176 19.88 361.764 20.444 362.196 21.116C362.652 21.764 362.88 22.556 362.88 23.492C362.88 24.74 362.496 25.808 361.728 26.696C360.96 27.56 359.916 28.22 358.596 28.676C357.3 29.132 355.836 29.36 354.204 29.36C351.924 29.36 350.136 28.94 348.84 28.1C347.544 27.236 346.896 26.096 346.896 24.68C346.896 23.696 347.172 22.928 347.724 22.376C348.276 21.824 348.936 21.548 349.704 21.548C350.28 21.548 350.808 21.716 351.288 22.052C351.792 22.364 352.044 22.82 352.044 23.42C352.044 23.852 351.912 24.272 351.648 24.68C351.384 25.088 351.084 25.388 350.748 25.58C350.988 25.964 351.384 26.324 351.936 26.66C352.488 26.996 353.28 27.164 354.312 27.164Z" fill="black"/>
</svg>
