<svg width="150" height="112" viewBox="0 0 150 112" fill="none" xmlns="http://www.w3.org/2000/svg">
<rect x="35" y="80" width="80" height="80" rx="40" transform="rotate(-90 35 80)" fill="#FFEA29"/>
<path d="M55 50L75 30L95 50" stroke="black" stroke-width="6"/>
<path d="M7.704 106.264C6.76 106.264 5.896 106.12 5.112 105.832C4.344 105.544 3.704 105.136 3.192 104.608L2.928 106H1.584V100.552H3.048C3.144 102.072 3.528 103.184 4.2 103.888C4.872 104.592 5.888 104.944 7.248 104.944C8.384 104.944 9.24 104.728 9.816 104.296C10.392 103.848 10.68 103.192 10.68 102.328C10.68 101.64 10.504 101.064 10.152 100.6C9.816 100.136 9.32 99.72 8.664 99.352C8.024 98.984 7.256 98.624 6.36 98.272C5.352 97.856 4.496 97.448 3.792 97.048C3.088 96.632 2.552 96.136 2.184 95.56C1.832 94.968 1.656 94.208 1.656 93.28C1.656 91.76 2.128 90.576 3.072 89.728C4.032 88.88 5.312 88.456 6.912 88.456C8.496 88.456 9.784 88.904 10.776 89.8L10.968 88.72H12.312V94.168H10.944C10.944 92.632 10.656 91.512 10.08 90.808C9.504 90.104 8.6 89.752 7.368 89.752C5.176 89.752 4.08 90.752 4.08 92.752C4.08 93.28 4.176 93.72 4.368 94.072C4.56 94.408 4.904 94.72 5.4 95.008C5.912 95.296 6.632 95.64 7.56 96.04C8.888 96.6 9.96 97.144 10.776 97.672C11.592 98.2 12.184 98.776 12.552 99.4C12.92 100.008 13.104 100.736 13.104 101.584C13.104 102.56 12.872 103.4 12.408 104.104C11.96 104.808 11.328 105.344 10.512 105.712C9.712 106.08 8.776 106.264 7.704 106.264ZM21.6152 92.8C22.5432 92.8 23.3432 92.96 24.0152 93.28C24.7032 93.584 25.2312 94.016 25.5992 94.576C25.9832 95.136 26.1752 95.792 26.1752 96.544C26.1752 97.136 26.0472 97.592 25.7912 97.912C25.5512 98.232 25.1832 98.392 24.6872 98.392C24.2392 98.392 23.8792 98.264 23.6072 98.008C23.3512 97.752 23.2232 97.408 23.2232 96.976C23.2232 96.576 23.3272 96.232 23.5352 95.944C23.7592 95.656 24.0552 95.456 24.4232 95.344C24.1832 94.88 23.8392 94.544 23.3912 94.336C22.9592 94.128 22.4152 94.024 21.7592 94.024C20.4472 94.024 19.4872 94.456 18.8792 95.32C18.2872 96.168 17.9912 97.496 17.9912 99.304C17.9912 100.088 18.0392 100.768 18.1352 101.344C18.2472 101.904 18.4072 102.384 18.6152 102.784C18.9352 103.376 19.3592 103.832 19.8872 104.152C20.4152 104.472 21.0392 104.632 21.7592 104.632C22.4952 104.632 23.1992 104.472 23.8712 104.152C24.5432 103.832 25.1192 103.376 25.5992 102.784L26.3192 103.36C25.6792 104.336 24.9432 105.064 24.1112 105.544C23.2792 106.008 22.3032 106.24 21.1832 106.24C20.0632 106.24 19.0872 106.016 18.2552 105.568C17.4392 105.104 16.7992 104.432 16.3352 103.552C15.7592 102.48 15.4712 101.184 15.4712 99.664C15.4712 98.272 15.7192 97.064 16.2152 96.04C16.7272 95.016 17.4472 94.224 18.3752 93.664C19.3032 93.088 20.3832 92.8 21.6152 92.8ZM35.3224 94.432C35.2584 94.384 35.1784 94.352 35.0824 94.336C35.0024 94.304 34.9224 94.288 34.8424 94.288C34.6504 94.288 34.4424 94.376 34.2184 94.552C33.9944 94.728 33.7784 94.968 33.5704 95.272C33.3624 95.56 33.1704 95.896 32.9944 96.28C32.7704 96.824 32.5944 97.424 32.4664 98.08C32.3384 98.72 32.2744 99.384 32.2744 100.072V104.56L34.8664 105.016V106H28.0984V105.016L29.9464 104.56V94.48L28.0984 94.024V93.04H31.5544L32.0824 96.208H32.1784C32.5464 95.12 33.0424 94.28 33.6664 93.688C34.2904 93.096 34.9784 92.8 35.7304 92.8C36.3544 92.8 36.8744 93 37.2904 93.4C37.7064 93.784 37.9144 94.304 37.9144 94.96C37.9144 95.44 37.7864 95.824 37.5304 96.112C37.2904 96.384 36.9624 96.52 36.5464 96.52C36.1304 96.52 35.8024 96.392 35.5624 96.136C35.3224 95.864 35.2024 95.512 35.2024 95.08C35.2024 94.984 35.2104 94.896 35.2264 94.816C35.2424 94.72 35.2744 94.592 35.3224 94.432ZM50.9734 99.4C50.9734 100.44 50.8134 101.432 50.4934 102.376C50.1894 103.304 49.7574 104.072 49.1974 104.68C48.7174 105.208 48.1254 105.6 47.4214 105.856C46.7174 106.112 45.9174 106.24 45.0214 106.24C44.1414 106.24 43.3574 106.12 42.6694 105.88C41.9814 105.624 41.3974 105.24 40.9174 104.728C40.3734 104.136 39.9494 103.408 39.6454 102.544C39.3574 101.664 39.2134 100.712 39.2134 99.688C39.2134 98.648 39.3654 97.656 39.6694 96.712C39.9734 95.752 40.4134 94.968 40.9894 94.36C41.5014 93.816 42.0934 93.424 42.7654 93.184C43.4534 92.928 44.2374 92.8 45.1174 92.8C45.9974 92.8 46.7894 92.928 47.4934 93.184C48.1974 93.424 48.7894 93.8 49.2694 94.312C49.8294 94.904 50.2534 95.648 50.5414 96.544C50.8294 97.424 50.9734 98.376 50.9734 99.4ZM41.7814 99.424C41.7814 100.4 41.8534 101.248 41.9974 101.968C42.1574 102.672 42.3734 103.256 42.6454 103.72C42.9174 104.12 43.2374 104.432 43.6054 104.656C43.9894 104.88 44.4854 104.992 45.0934 104.992C46.1974 104.992 47.0214 104.616 47.5654 103.864C47.8534 103.448 48.0614 102.872 48.1894 102.136C48.3334 101.4 48.4054 100.552 48.4054 99.592C48.4054 98.632 48.3254 97.792 48.1654 97.072C48.0214 96.352 47.8134 95.768 47.5414 95.32C47.2854 94.904 46.9574 94.592 46.5574 94.384C46.1734 94.16 45.6774 94.048 45.0694 94.048C43.9494 94.048 43.1414 94.416 42.6454 95.152C42.0694 96.048 41.7814 97.472 41.7814 99.424ZM54.5981 104.56V88.72L52.7501 88.264V87.28H56.9261V104.56L58.7741 105.016V106H52.7501V105.016L54.5981 104.56ZM61.9809 104.56V88.72L60.1329 88.264V87.28H64.3089V104.56L66.1569 105.016V106H60.1329V105.016L61.9809 104.56ZM73.0721 88.72H87.3761V93.76H86.1281L85.3601 90.16H81.4241V104.392L83.9681 104.968V106H76.4801V104.968L79.0241 104.392V90.16H75.0641L74.3201 93.76H73.0721V88.72ZM99.8874 99.4C99.8874 100.44 99.7274 101.432 99.4074 102.376C99.1034 103.304 98.6714 104.072 98.1114 104.68C97.6314 105.208 97.0394 105.6 96.3354 105.856C95.6314 106.112 94.8314 106.24 93.9354 106.24C93.0554 106.24 92.2714 106.12 91.5834 105.88C90.8954 105.624 90.3114 105.24 89.8314 104.728C89.2874 104.136 88.8634 103.408 88.5594 102.544C88.2714 101.664 88.1274 100.712 88.1274 99.688C88.1274 98.648 88.2794 97.656 88.5834 96.712C88.8874 95.752 89.3274 94.968 89.9034 94.36C90.4154 93.816 91.0074 93.424 91.6794 93.184C92.3674 92.928 93.1514 92.8 94.0314 92.8C94.9114 92.8 95.7034 92.928 96.4074 93.184C97.1114 93.424 97.7034 93.8 98.1834 94.312C98.7434 94.904 99.1674 95.648 99.4554 96.544C99.7434 97.424 99.8874 98.376 99.8874 99.4ZM90.6954 99.424C90.6954 100.4 90.7674 101.248 90.9114 101.968C91.0714 102.672 91.2874 103.256 91.5594 103.72C91.8314 104.12 92.1514 104.432 92.5194 104.656C92.9034 104.88 93.3994 104.992 94.0074 104.992C95.1114 104.992 95.9354 104.616 96.4794 103.864C96.7674 103.448 96.9754 102.872 97.1034 102.136C97.2474 101.4 97.3194 100.552 97.3194 99.592C97.3194 98.632 97.2394 97.792 97.0794 97.072C96.9354 96.352 96.7274 95.768 96.4554 95.32C96.1994 94.904 95.8714 94.592 95.4714 94.384C95.0874 94.16 94.5914 94.048 93.9834 94.048C92.8634 94.048 92.0554 94.416 91.5594 95.152C90.9834 96.048 90.6954 97.472 90.6954 99.424ZM107.221 88.72H121.525V93.76H120.277L119.509 90.16H115.573V104.392L118.117 104.968V106H110.629V104.968L113.173 104.392V90.16H109.213L108.469 93.76H107.221V88.72ZM134.036 99.4C134.036 100.44 133.876 101.432 133.556 102.376C133.252 103.304 132.82 104.072 132.26 104.68C131.78 105.208 131.188 105.6 130.484 105.856C129.78 106.112 128.98 106.24 128.084 106.24C127.204 106.24 126.42 106.12 125.732 105.88C125.044 105.624 124.46 105.24 123.98 104.728C123.436 104.136 123.012 103.408 122.708 102.544C122.42 101.664 122.276 100.712 122.276 99.688C122.276 98.648 122.428 97.656 122.732 96.712C123.036 95.752 123.476 94.968 124.052 94.36C124.564 93.816 125.156 93.424 125.828 93.184C126.516 92.928 127.3 92.8 128.18 92.8C129.06 92.8 129.852 92.928 130.556 93.184C131.26 93.424 131.852 93.8 132.332 94.312C132.892 94.904 133.316 95.648 133.604 96.544C133.892 97.424 134.036 98.376 134.036 99.4ZM124.844 99.424C124.844 100.4 124.916 101.248 125.06 101.968C125.22 102.672 125.436 103.256 125.708 103.72C125.98 104.12 126.3 104.432 126.668 104.656C127.052 104.88 127.548 104.992 128.156 104.992C129.26 104.992 130.084 104.616 130.628 103.864C130.916 103.448 131.124 102.872 131.252 102.136C131.396 101.4 131.468 100.552 131.468 99.592C131.468 98.632 131.388 97.792 131.228 97.072C131.084 96.352 130.876 95.768 130.604 95.32C130.348 94.904 130.02 94.592 129.62 94.384C129.236 94.16 128.74 94.048 128.132 94.048C127.012 94.048 126.204 94.416 125.708 95.152C125.132 96.048 124.844 97.472 124.844 99.424ZM139.917 108.88L142.245 109.336V110.32H135.741V109.336L137.589 108.88V94.48L135.741 94.024V93.04H139.197L139.557 94.888C140.069 94.088 140.645 93.544 141.285 93.256C141.941 92.952 142.677 92.8 143.493 92.8C144.309 92.8 145.045 92.92 145.701 93.16C146.373 93.4 146.917 93.784 147.333 94.312C147.813 94.92 148.189 95.656 148.461 96.52C148.749 97.368 148.893 98.288 148.893 99.28C148.893 100.304 148.733 101.272 148.413 102.184C148.109 103.08 147.693 103.832 147.165 104.44C146.269 105.48 144.981 106 143.301 106C142.613 106 141.989 105.872 141.429 105.616C140.885 105.344 140.381 104.88 139.917 104.224V108.88ZM139.893 99.304C139.893 100.248 139.965 101.072 140.109 101.776C140.253 102.48 140.461 103.048 140.733 103.48C140.989 103.88 141.301 104.192 141.669 104.416C142.053 104.64 142.541 104.752 143.133 104.752C143.677 104.752 144.149 104.656 144.549 104.464C144.965 104.256 145.301 103.976 145.557 103.624C145.845 103.224 146.053 102.664 146.181 101.944C146.309 101.224 146.373 100.4 146.373 99.472C146.373 98.528 146.301 97.712 146.157 97.024C146.013 96.336 145.805 95.768 145.533 95.32C145.277 94.904 144.957 94.592 144.573 94.384C144.205 94.16 143.717 94.048 143.109 94.048C142.565 94.048 142.085 94.144 141.669 94.336C141.269 94.512 140.957 94.784 140.733 95.152C140.477 95.584 140.269 96.152 140.109 96.856C139.965 97.544 139.893 98.36 139.893 99.304Z" fill="black"/>
</svg>
