<svg width="375" height="63" viewBox="0 0 375 63" fill="none" xmlns="http://www.w3.org/2000/svg">
<path d="M35.2431 3.28809H22.7431C18.6632 3.28809 14.757 4.85059 11.8056 7.80197C8.85419 10.7534 7.29169 14.5728 7.29169 18.7395V19.9548C7.29169 26.2048 11.1111 31.9339 16.9271 34.2777L34.9827 41.6561C35.1563 41.743 35.2431 41.9166 35.2431 42.0902V45.1284C35.2431 45.2152 35.2431 45.302 35.1563 45.3888C35.0695 45.4756 34.9827 45.4756 34.8959 45.4756H23.6111C22.8299 45.4756 22.2222 44.8679 22.2222 44.0867V42.2638L19.3577 41.2221L19.4445 44.2603C19.4445 45.3888 19.8785 46.4304 20.6597 47.2117C21.441 47.9929 22.4827 48.427 23.6111 48.427H34.8959C35.7639 48.427 36.5452 48.0798 37.1528 47.4721C37.4132 47.2117 37.6736 46.7777 37.8472 46.4305C38.0208 46.0832 38.1077 45.6492 38.1077 45.2152V42.0902C38.1077 40.7881 37.3264 39.5728 36.1111 39.1388L17.9688 31.7603C13.1945 29.8506 10.1563 25.1631 10.1563 20.0416V18.8263C10.1563 15.4409 11.4584 12.2291 13.8889 9.88531C15.1042 8.67003 16.4931 7.80197 17.9688 7.19434C19.4445 6.5867 21.0938 6.23948 22.8299 6.23948H35.3299C42.1007 6.23948 47.5695 11.7082 47.5695 18.4791V25.3367L50.2604 26.3784H50.3472V18.6527C50.3472 10.0589 43.5764 3.28809 35.2431 3.28809Z" fill="black"/>
<path d="M40.7118 28.7223L22.5695 21.3438C22.3958 21.257 22.309 21.0834 22.309 20.9098V17.8716C22.309 17.7848 22.309 17.6112 22.3958 17.6112C22.4826 17.5244 22.5695 17.5244 22.6563 17.5244H33.941C34.7222 17.5244 35.3299 18.132 35.3299 18.9132V20.823L38.1076 21.8646V18.9132C38.1076 16.5695 36.1979 14.7466 33.941 14.7466H22.6563C21.7882 14.7466 21.007 15.0938 20.3993 15.6146C19.7917 16.2223 19.4445 17.0903 19.4445 17.9584V20.9966C19.4445 22.2987 20.2257 23.5139 21.441 23.948L39.6701 31.4132C44.4445 33.323 47.5695 38.0105 47.5695 43.132V44.3473C47.5695 47.7327 46.2674 50.9445 43.8368 53.2882C41.4931 55.632 38.2813 57.0209 34.8958 57.0209H22.3958C15.625 57.0209 10.1563 51.5521 10.1563 44.7813V37.9237L7.46528 36.882H7.37848V44.6077C7.37848 52.941 14.1493 59.7119 22.4826 59.7119H34.8958C38.9757 59.7119 42.882 58.1494 45.8333 55.198C48.7847 52.2466 50.3472 48.1667 50.3472 44.0001V43.132C50.3472 36.7952 46.5278 31.066 40.7118 28.7223Z" fill="black"/>
<path d="M12.934 38.705V45.0418C12.934 45.823 13.1076 46.5175 13.2812 47.2119C14.4097 51.205 18.0555 54.0696 22.3958 54.0696H34.8958C37.8472 54.0696 40.625 52.7675 42.5347 50.4237C44.0104 48.6008 44.7049 46.3439 44.7049 44.0869V43.0452C44.7049 39.0522 42.2743 35.4932 38.6285 33.9307L20.3993 26.4654C18.1424 25.5105 16.6667 23.3404 16.6667 20.9098V17.8716C16.6667 16.2223 17.3611 14.6598 18.4896 13.5314C19.618 12.4897 21.0937 11.8821 22.6562 11.8821H33.941C35.0694 11.9689 36.6319 12.3161 38.1076 13.2709C38.8889 13.7918 40.1042 14.573 40.7986 15.9619C40.8854 16.2223 41.1458 16.7432 41.2326 18.9133C41.3194 19.8682 41.3194 21.1702 41.2326 22.8196C42.3611 23.2536 43.4896 23.7744 44.7049 24.2084V18.2189C44.7049 17.698 44.6181 17.1772 44.5312 16.7432C43.75 12.3161 39.8437 8.93066 35.243 8.93066H22.7431C19.7917 8.93066 17.0139 10.2327 15.1042 12.5765C13.6285 14.3994 12.934 16.6564 12.934 18.9133V19.955C12.934 23.948 15.3646 27.5071 19.0104 29.0696L37.1528 36.448C39.4097 37.4029 40.8854 39.573 40.8854 42.0036V45.1286C40.8854 46.9515 40.1042 48.6876 38.6285 49.8161C37.5375 50.6664 36.1922 51.125 34.809 51.1182H23.6111C22.9167 51.1182 21.7882 51.1182 20.4861 50.5105C19.0972 49.9029 18.2292 49.0348 18.0555 48.8612C16.2326 46.9515 16.1458 44.4341 16.1458 43.7397V40.0071C15.1042 39.6598 13.9757 39.139 12.934 38.705ZM94.184 31.7605C93.0556 30.7189 91.4062 30.0244 89.2361 29.6772L82.5521 28.5487C81.684 28.3751 81.0764 28.1147 80.5556 27.6807C80.1215 27.2466 79.9479 26.8126 79.9479 26.205V24.9029C79.9479 24.1216 80.2083 23.514 80.816 23.08C81.4236 22.5591 82.2917 22.3855 83.4201 22.3855H87.5868C88.5417 22.3855 89.3229 22.7327 89.8438 23.3404C90.4514 23.948 90.7118 24.8161 90.7118 25.8577V26.1182H95.4861V25.8577C95.4861 24.3821 95.1389 22.9932 94.5312 21.7779C93.8368 20.6494 92.9688 19.6077 91.7535 19.0001C90.625 18.3925 89.1493 18.0452 87.5868 18.0452H83.4201C81.7708 18.0452 80.2951 18.3057 79.0799 18.9133C77.8646 19.4341 76.8229 20.2154 76.1285 21.2571C75.434 22.2119 75.0868 23.4272 75.0868 24.7293V26.7258C75.0868 28.3751 75.6944 29.764 76.8229 30.8925C77.9514 31.9341 79.6007 32.7154 81.684 33.0626L88.2812 34.1911C89.1493 34.3647 89.8438 34.6251 90.3646 35.0591C90.8854 35.4932 91.059 35.9272 91.059 36.5348V38.0973C91.059 38.8786 90.7118 39.4862 90.1042 39.9202C89.4097 40.4411 88.5417 40.7015 87.4132 40.7015H83.3333C82.2049 40.7015 81.1632 40.3543 80.5556 39.573C79.8611 38.7918 79.5139 37.8369 79.5139 36.5348V36.2744H74.7396V36.5348C74.7396 39.139 75.5208 41.2223 76.9965 42.698C78.4722 44.1737 80.5556 44.955 83.1597 44.955H87.3264C88.9757 44.955 90.4514 44.6946 91.7535 44.0869C93.0555 43.5661 94.0104 42.698 94.7917 41.7432C95.4861 40.7015 95.9201 39.573 95.9201 38.2709V35.9272C96.0069 34.0175 95.3993 32.7154 94.184 31.7605ZM112.326 36.8821C112.326 37.9237 112.066 38.7918 111.458 39.3994C110.938 40.0071 110.243 40.3543 109.288 40.3543H106.25C105.295 40.3543 104.514 40.0071 103.993 39.3994C103.385 38.705 103.125 37.8369 103.125 36.7084V32.455C103.125 31.3265 103.385 30.3716 103.993 29.6772C104.601 28.9827 105.295 28.6355 106.25 28.6355H109.288C110.156 28.6355 110.764 28.8959 111.285 29.5036C111.806 30.0244 112.066 30.7189 112.066 31.5869V31.7605H116.84V31.5869C116.84 29.4168 116.146 27.7675 114.757 26.4654C113.368 25.1633 111.545 24.5557 109.288 24.5557H106.25C104.688 24.5557 103.299 24.9029 102.083 25.5105C100.868 26.1182 99.9132 27.073 99.3056 28.2883C98.6979 29.4168 98.3507 30.8057 98.3507 32.3682V37.1425C98.3507 39.3994 99.132 41.3091 100.521 42.6112C101.997 44.0001 103.906 44.6946 106.337 44.6946H109.375C111.632 44.6946 113.542 44.0001 114.931 42.5244C116.319 41.0487 117.101 39.2258 117.101 36.9689V36.7084H112.326V36.8821ZM131.944 24.4689H129.427C128.559 24.4689 127.691 24.6425 126.823 25.1633C126.128 25.5105 125.521 26.0314 125 26.5522V17.8716H120.226V44.2605H125V32.6286C125.174 31.5001 125.694 30.5452 126.476 29.8508C127.257 29.1564 128.038 28.8091 128.993 28.8091H131.51C132.205 28.8091 132.726 29.0696 133.247 29.5904C133.681 30.1112 133.941 30.8057 133.941 31.7605V44.4341H138.715V31.5001C138.715 29.4168 138.108 27.6807 136.892 26.3786C135.59 25.1633 133.941 24.4689 131.944 24.4689ZM157.118 25.4237C155.903 24.8161 154.514 24.4689 152.951 24.4689H149.566C148.003 24.4689 146.528 24.8161 145.399 25.4237C144.184 26.0314 143.229 26.9862 142.622 28.2015C141.927 29.33 141.58 30.7189 141.58 32.2814V37.0557C141.58 39.3126 142.361 41.2223 143.75 42.6112C145.226 44.0001 147.222 44.7814 149.566 44.7814H152.865C155.382 44.7814 157.292 44.0869 158.767 42.6112C160.243 41.2223 160.938 39.3126 160.938 37.0557V32.2814C160.938 30.8057 160.59 29.4168 159.896 28.2015C159.201 27.073 158.247 26.1182 157.118 25.4237ZM156.076 32.3682V36.7084C156.076 37.8369 155.816 38.705 155.208 39.3994C154.601 40.0939 153.819 40.4411 152.778 40.4411H149.566C148.611 40.4411 147.83 40.0939 147.222 39.3994C146.615 38.705 146.354 37.8369 146.354 36.7084V32.3682C146.354 31.2397 146.615 30.3716 147.222 29.6772C147.83 28.9827 148.611 28.6355 149.653 28.6355H152.865C153.906 28.6355 154.688 28.9827 155.295 29.6772C155.816 30.3716 156.076 31.3265 156.076 32.3682ZM169.184 39.6598C168.924 39.3994 168.75 38.8786 168.75 38.1841V17.7848H163.976V38.4446C163.976 40.4411 164.497 41.9168 165.451 42.8716C166.493 43.8265 168.056 44.3473 170.226 44.3473H172.483V40.1807H170.399C169.878 40.0939 169.444 40.0071 169.184 39.6598ZM191.319 26.2918C190.017 25.1633 188.194 24.4689 186.024 24.4689H182.813C180.642 24.4689 178.906 24.9897 177.517 26.1182C176.128 27.2466 175.521 28.7223 175.521 30.5452V30.7189H180.295V30.5452C180.295 30.0244 180.469 29.5036 180.99 29.1564C181.51 28.8091 182.118 28.6355 182.899 28.6355H186.111C186.892 28.6355 187.5 28.8091 187.934 29.33C188.455 29.764 188.628 30.3716 188.628 31.1529V33.1494C188.108 32.889 187.413 32.6286 186.719 32.455C185.851 32.2814 185.069 32.1077 184.375 32.1077H182.031C179.948 32.1077 178.299 32.6286 176.997 33.5834C175.694 34.6251 175.087 35.9272 175.087 37.6633V39.0522C175.087 40.7883 175.694 42.1772 176.91 43.1321C178.125 44.1737 179.688 44.6077 181.684 44.6077H184.028C184.896 44.6077 185.851 44.3473 186.806 43.8265C187.587 43.3925 188.281 42.8716 188.802 42.264V44.2605H193.316V31.0661C193.316 29.0696 192.622 27.4202 191.319 26.2918ZM179.688 37.7501C179.688 37.2293 179.861 36.7952 180.295 36.448C180.729 36.1008 181.337 35.9272 182.031 35.9272H184.462C185.33 35.9272 186.111 36.1008 186.892 36.2744C187.587 36.448 188.108 36.7952 188.542 37.0557V37.8369C188.194 38.705 187.674 39.3994 186.892 40.0071C186.111 40.5279 185.243 40.8751 184.288 40.8751H182.118C181.337 40.8751 180.816 40.7015 180.295 40.3543C179.861 40.0071 179.688 39.573 179.688 38.9654V37.7501ZM203.299 25.4237C202.517 25.8577 201.91 26.2918 201.476 26.8994V24.7293H196.962V44.2605H201.736V33.5834C201.736 32.1946 202.17 31.0661 203.038 30.2848C203.906 29.4168 205.035 28.9827 206.424 28.9827H208.247V24.7293H206.424C205.295 24.7293 204.253 24.9897 203.299 25.4237ZM223.611 33.2362L216.753 32.0209C216.319 31.9341 215.885 31.8473 215.712 31.5869C215.451 31.4133 215.365 31.0661 215.365 30.8057V30.0244C215.365 29.5904 215.538 29.2432 215.972 29.0696C216.493 28.8091 217.101 28.6355 217.882 28.6355H220.92C221.615 28.6355 222.135 28.8091 222.569 29.1564C223.003 29.5036 223.177 30.0244 223.177 30.6321V30.8057H227.951V30.6321C227.951 28.8091 227.257 27.2466 226.042 26.205C224.74 25.0765 223.09 24.4689 221.007 24.4689H217.969C215.712 24.4689 213.889 24.9897 212.587 25.9446C211.285 26.8994 210.59 28.2015 210.59 29.8508V30.9793C210.59 32.1077 211.111 33.1494 211.979 34.0175C212.847 34.8855 214.149 35.4932 215.625 35.6668L222.222 36.7952C222.743 36.8821 223.09 37.0557 223.351 37.3161C223.611 37.4897 223.698 37.8369 223.698 38.0973V38.9654C223.698 39.3994 223.524 39.7466 223.09 40.0071C222.569 40.2675 221.962 40.4411 221.181 40.4411H217.795C216.927 40.4411 216.319 40.2675 215.799 39.7466C215.278 39.2258 215.017 38.705 215.017 37.9237V37.7501H210.243V37.9237C210.243 39.9202 210.938 41.5696 212.326 42.698C213.715 43.8265 215.451 44.5209 217.795 44.5209H221.181C223.351 44.5209 225.174 44.0001 226.476 43.0452C227.865 42.0904 228.559 40.7883 228.559 39.139V37.6633C228.559 36.5348 228.038 35.4932 227.257 34.7119C226.215 34.0175 225.087 33.4966 223.611 33.2362ZM243.49 24.4689H240.972C240.104 24.4689 239.236 24.6425 238.368 25.1633C237.674 25.5105 237.066 26.0314 236.545 26.5522V17.7848H231.771V44.3473H236.545V32.6286C236.719 31.5001 237.24 30.5452 238.021 29.8508C238.802 29.1564 239.583 28.8091 240.538 28.8091H243.056C243.75 28.8091 244.271 29.0696 244.792 29.5904C245.226 30.1112 245.486 30.8057 245.486 31.7605V44.4341H250.26V31.5001C250.26 29.4168 249.653 27.6807 248.438 26.3786C247.135 25.1633 245.486 24.4689 243.49 24.4689ZM253.819 24.8161H258.594V44.3473H253.819V24.8161ZM256.163 17.7848C255.469 17.7848 254.861 17.9584 254.427 18.4793C253.993 18.9133 253.733 19.5209 253.733 20.1286C253.733 20.823 253.906 21.3439 254.427 21.7779C254.861 22.2119 255.469 22.4723 256.163 22.4723C256.858 22.4723 257.465 22.2987 257.986 21.7779C258.507 21.3439 258.681 20.7362 258.681 20.1286C258.681 19.4341 258.507 18.9133 257.986 18.4793C257.465 18.0452 256.858 17.7848 256.163 17.7848ZM273.872 24.4689H271.354C270.486 24.4689 269.618 24.7293 268.75 25.2501C268.056 25.5973 267.535 26.1182 266.927 26.7258V24.9029H262.413V51.3786H267.188V42.9584C267.708 43.4793 268.229 43.8265 268.837 44.0869C269.705 44.5209 270.486 44.6077 271.267 44.6077H273.785C276.042 44.6077 277.951 43.8265 279.34 42.3508C280.729 40.8751 281.424 38.8786 281.424 36.448V32.0209C281.424 29.764 280.729 27.9411 279.254 26.5522C277.951 25.1633 276.129 24.4689 273.872 24.4689ZM276.649 36.1876C276.649 37.4029 276.302 38.4446 275.781 39.3126C275.174 40.0939 274.392 40.4411 273.438 40.4411H270.92C269.965 40.4411 269.097 40.0939 268.403 39.3994C267.708 38.705 267.274 37.7501 267.188 36.6216V32.1946C267.448 31.1529 268.056 30.3716 268.663 29.6772C269.271 28.9827 270.139 28.7223 270.92 28.7223H273.438C274.392 28.7223 275.26 29.0696 275.781 29.6772C276.389 30.3716 276.649 31.1529 276.649 32.2814V36.1876ZM300.434 34.8855C299.566 34.0175 298.351 33.4966 296.962 33.2362L290.104 32.0209C289.67 31.9341 289.236 31.8473 289.063 31.5869C288.802 31.4133 288.715 31.0661 288.715 30.8057V30.0244C288.715 29.5904 288.889 29.2432 289.323 29.0696C289.844 28.8091 290.451 28.6355 291.233 28.6355H294.271C294.965 28.6355 295.486 28.8091 295.92 29.1564C296.354 29.5036 296.528 30.0244 296.528 30.6321V30.8057H301.302V30.6321C301.302 28.8091 300.608 27.2466 299.392 26.205C298.09 25.0765 296.441 24.4689 294.358 24.4689H291.319C289.063 24.4689 287.24 24.9897 285.938 25.9446C284.635 26.8994 283.941 28.2015 283.941 29.8508V30.9793C283.941 32.1077 284.462 33.1494 285.33 34.0175C286.198 34.8855 287.5 35.4932 288.976 35.6668L295.573 36.7952C296.094 36.8821 296.441 37.0557 296.701 37.3161C296.962 37.4897 297.049 37.8369 297.049 38.0973V38.9654C297.049 39.3994 296.875 39.7466 296.441 40.0071C295.92 40.2675 295.313 40.4411 294.531 40.4411H291.146C290.278 40.4411 289.67 40.2675 289.149 39.7466C288.629 39.2258 288.368 38.705 288.368 37.9237V37.7501H283.594V37.9237C283.594 39.9202 284.288 41.5696 285.677 42.698C287.066 43.8265 288.802 44.5209 291.146 44.5209H294.531C296.701 44.5209 298.524 44.0001 299.826 43.0452C301.215 42.0904 301.91 40.7883 301.91 39.139V37.6633C301.823 36.7084 301.389 35.6668 300.434 34.8855Z" fill="black"/>
<path d="M359.028 44.6076H318.49C313.021 44.6076 308.594 40.1805 308.594 34.7118C308.594 29.243 313.021 24.8159 318.49 24.8159H359.288C364.67 24.8159 369.01 29.1562 369.01 34.5381C369.01 40.0069 364.497 44.6076 359.028 44.6076Z" fill="black"/>
<path d="M318.142 36.5347C317.621 36.5347 317.274 36.7083 317.014 36.9687C316.753 37.2291 316.58 37.6632 316.58 38.0972C316.58 38.618 316.753 38.9653 317.014 39.2257C317.274 39.4861 317.708 39.6597 318.142 39.6597C318.663 39.6597 319.01 39.4861 319.271 39.2257C319.531 38.9653 319.705 38.5312 319.705 38.0972C319.705 37.5764 319.531 37.2291 319.271 36.9687C318.924 36.7083 318.576 36.5347 318.142 36.5347ZM328.212 35.6666C328.212 36.1875 328.038 36.6215 327.778 36.8819C327.517 37.2291 327.17 37.4028 326.736 37.4028H325.26C324.74 37.4028 324.392 37.2291 324.132 36.8819C323.871 36.5347 323.698 36.1007 323.698 35.5798V33.4097C323.698 32.8889 323.871 32.368 324.132 32.0208C324.392 31.6736 324.74 31.5 325.26 31.5H326.736C327.17 31.5 327.517 31.6736 327.691 31.934C327.951 32.1944 328.038 32.5416 328.038 32.9757V33.1493H330.556V32.9757C330.556 31.8472 330.208 31.0659 329.514 30.3715C328.819 29.6771 327.865 29.4166 326.736 29.4166H325.26C324.479 29.4166 323.785 29.5903 323.09 29.9375C322.483 30.2847 321.962 30.8055 321.615 31.3264C321.267 31.934 321.094 32.6284 321.094 33.4097V35.8403C321.094 36.9687 321.441 37.9236 322.222 38.618C323.003 39.3125 323.958 39.6597 325.174 39.6597H326.649C327.778 39.6597 328.819 39.3125 329.427 38.5312C330.121 37.8368 330.556 36.8819 330.556 35.7534V35.5798L328.212 35.6666ZM340.017 29.8507C339.41 29.5034 338.715 29.3298 337.847 29.3298H336.111C335.243 29.3298 334.635 29.5034 333.941 29.8507C333.247 30.1979 332.812 30.7187 332.465 31.2396C332.118 31.8472 331.944 32.5416 331.944 33.3229V35.7534C331.944 36.8819 332.378 37.9236 333.073 38.5312C333.854 39.2257 334.809 39.6597 336.024 39.6597H337.674C338.889 39.6597 339.931 39.3125 340.712 38.5312C341.493 37.8368 341.84 36.8819 341.84 35.7534V33.3229C341.84 32.5416 341.667 31.8472 341.319 31.2396C341.146 30.6319 340.625 30.1111 340.017 29.8507ZM339.496 33.4097V35.5798C339.496 36.1007 339.323 36.5347 338.976 36.8819C338.715 37.2291 338.281 37.4028 337.847 37.4028H336.198C335.677 37.4028 335.33 37.2291 335.069 36.8819C334.809 36.5347 334.635 36.1007 334.635 35.5798V33.4097C334.635 32.8889 334.809 32.4548 335.069 32.1076C335.33 31.7604 335.764 31.5868 336.198 31.5868H337.76C338.281 31.5868 338.628 31.7604 338.889 32.1076C339.323 32.368 339.496 32.8021 339.496 33.4097ZM356.771 30.2847C356.163 29.6771 355.382 29.3298 354.427 29.3298H353.299C352.778 29.3298 352.344 29.5034 351.91 29.7639C351.562 29.9375 351.215 30.2847 351.042 30.6319C350.868 30.2847 350.521 29.9375 350.174 29.7639C349.74 29.5034 349.306 29.3298 348.785 29.3298H347.656C347.222 29.3298 346.788 29.5034 346.441 29.7639C346.181 29.9375 345.92 30.1111 345.746 30.3715V29.5034H343.403V39.3125H345.92V33.4097C346.007 32.8889 346.181 32.368 346.441 32.0208C346.701 31.6736 347.049 31.5 347.396 31.5H348.264C348.524 31.5 348.785 31.6736 348.871 31.8472C349.045 32.0208 349.132 32.368 349.132 32.8021V39.3125H351.649V33.0625C351.736 32.5416 351.91 32.1944 352.17 31.934C352.431 31.6736 352.691 31.5 353.125 31.5H353.993C354.253 31.5 354.514 31.5868 354.601 31.8472C354.774 32.0208 354.861 32.368 354.861 32.7153V39.3125H357.378V32.7153C357.639 31.7604 357.292 30.9791 356.771 30.2847Z" fill="white"/>
<path d="M63.0208 2.42017V60.5799" stroke="black" stroke-width="0.5" stroke-miterlimit="10"/>
</svg>
