<svg width="360" height="67" viewBox="0 0 360 67" fill="none" xmlns="http://www.w3.org/2000/svg">
<g clip-path="url(#clip0_51_538)">
<path d="M10.57 63.4201C12.7118 64.1449 14.9589 64.5098 17.22 64.5001C27.22 64.5001 34.22 57.2401 34.22 43.5001V2.37006L38 0.560059V44.1901C38 58.2501 30.75 66.4401 20.47 66.4401C16.9464 66.4185 13.5057 65.3689 10.57 63.4201ZM6.23 59.2401C8.36751 60.0039 10.6112 60.429 12.88 60.5001C21.29 60.5001 26.88 55.2201 26.88 43.3001V5.50006L30.62 3.74006V43.6401C30.63 56.1101 24.31 62.5001 15.52 62.5001C12.1557 62.4278 8.90177 61.2859 6.23 59.2401ZM3.6 55.5001C5.39427 56.0907 7.2624 56.4273 9.15 56.5001C15.68 56.5001 19.69 52.9201 19.69 43.5001V8.69006L23.38 6.93006V42.9801C23.38 53.5301 18.54 58.3101 11.62 58.3101C8.70842 58.2921 5.88606 57.3032 3.6 55.5001ZM16.23 44.5001V10.1201L0 17.4301V45.3401C0 50.6701 3.36 54.2401 8.3 54.2401C13.24 54.2401 16.23 50.6201 16.23 44.5001Z" fill="black"/>
</g>
<mask id="mask0_51_538" style="mask-type:luminance" maskUnits="userSpaceOnUse" x="48" y="17" width="312" height="33">
<path d="M359.228 17.5674H48.6072V49.4325H359.228V17.5674Z" fill="white"/>
</mask>
<g mask="url(#mask0_51_538)">
<path d="M52.0782 22.801V38.8629C52.0782 44.794 55.5804 49.4324 62.2637 49.4324C68.0225 49.4324 72.3553 45.1858 72.3553 38.7375V23.2476C72.3381 22.4295 72.6416 21.6372 73.2008 21.0398C73.7601 20.4425 74.5308 20.0876 75.3483 20.0509H75.3874H75.9907V18.4839H65.9305V19.9883L66.5808 20.0353C67.3929 20.0637 68.1621 20.4064 68.7264 20.9911C69.2906 21.5758 69.6057 22.3568 69.6052 23.1693V38.2596C69.6052 43.1486 67.0509 46.1416 63.0707 46.1416C59.0905 46.1416 56.6617 43.0076 56.6617 38.2126V22.801C56.6617 21.1165 57.5705 20.145 59.4744 20.0353L60.0777 19.9883V18.4683H48.6072V19.9883L49.2575 20.0353C51.1223 20.1606 52.0782 21.0695 52.0782 22.801Z" fill="black"/>
<path d="M75.9672 27.3533V28.7793L76.8526 28.8184C78.1845 28.9046 79.0229 29.5549 79.0229 31.3805V44.7001C79.0229 46.51 78.1375 47.1603 76.6723 47.2543H76.022V48.8135H86.2154V47.3092H85.6121C84.1313 47.2151 83.2616 46.5257 83.2616 44.7549V37.6094C83.34 32.4147 85.6121 29.2964 88.2369 29.2964C90.274 29.2964 91.6138 30.6832 91.6138 33.3706V44.7158C91.6138 46.5257 90.7049 47.176 89.2633 47.27H88.613V48.8135H98.8299V47.3092H98.2266C96.7536 47.2151 95.8761 46.5257 95.8761 44.7549V32.8927C95.8761 29.5158 93.7919 26.6951 89.6785 26.6951C88.2263 26.6763 86.8084 27.1366 85.6441 28.0048C84.4799 28.873 83.6343 30.1008 83.2381 31.498V26.797L75.9672 27.3533Z" fill="black"/>
<path d="M135.208 49.2131C139.58 49.2131 142.04 46.2279 143.043 42.851L141.178 42.3496C140.293 44.7001 138.828 46.5021 135.764 46.5021C132.262 46.5021 129.88 43.1644 129.88 37.8836H143.325V36.5986C143.325 31.0122 140.034 26.5071 134.754 26.5071C129.081 26.5071 125.352 31.9211 125.352 37.8522C125.352 43.7834 128.971 49.2131 135.208 49.2131ZM134.73 28.9986C137.081 28.9986 138.648 31.2081 138.796 35.7524H129.943C130.397 31.5529 132.129 28.9986 134.73 28.9986Z" fill="black"/>
<path d="M113.905 43.9324C113.905 47.3093 115.942 49.2132 119.185 49.2132C122.218 49.2132 124.208 47.0037 125.117 43.8462L123.549 43.3996C122.938 45.2252 121.982 46.3456 120.557 46.3456C118.739 46.3456 118.135 45.0215 118.135 43.4466V29.4219H124.067V27.181H118.143V20.5056H115.989C115.205 25.5279 112.612 27.3534 109.924 27.9097V29.4219H113.912L113.905 43.9324Z" fill="black"/>
<path d="M104.816 23.2791C105.567 23.2606 106.281 22.9453 106.801 22.402C107.321 21.8588 107.604 21.1319 107.589 20.3802C107.586 19.6421 107.293 18.9349 106.775 18.4094C106.257 17.8838 105.554 17.5817 104.816 17.5674C104.075 17.5736 103.368 17.8732 102.848 18.4005C102.328 18.9277 102.038 19.6397 102.042 20.3802C102.023 21.1277 102.301 21.8524 102.815 22.3957C103.329 22.9389 104.037 23.2566 104.785 23.2791H104.816Z" fill="black"/>
<path d="M102.818 31.3804V44.7C102.818 46.5099 101.909 47.1602 100.467 47.2542H99.8171V48.8134H110.081V47.3091H109.47C108.005 47.215 107.119 46.5256 107.119 44.7548V26.7891L99.6369 27.3532V28.7792L100.718 28.8183C101.995 28.8654 102.818 29.5548 102.818 31.3804Z" fill="black"/>
<path d="M154.38 49.2131C155.677 49.2745 156.96 48.922 158.043 48.2065C159.126 47.491 159.953 46.4496 160.406 45.2329V48.8136H167.637V47.3092H167.026C165.553 47.2152 164.676 46.5257 164.676 44.755V17.9121L157.311 18.5624V19.9884L158.259 20.0354C159.591 20.0354 160.421 20.7719 160.421 22.5896V30.4247C159.953 29.2229 159.117 28.2002 158.032 27.5035C156.946 26.8068 155.668 26.4717 154.38 26.5463C148.716 26.5463 145.527 31.9604 145.527 37.8915C145.527 43.8226 148.716 49.2131 154.38 49.2131ZM155.164 28.9987C158.361 28.9987 160.445 32.454 160.445 37.868C160.445 43.282 158.298 46.7451 155.164 46.7451C152.132 46.7451 150.142 43.329 150.142 37.868C150.142 32.407 152.124 28.9987 155.156 28.9987H155.164Z" fill="black"/>
<path d="M183.574 19.9257L184.224 19.9728C185.791 20.0589 187.037 20.7092 187.037 22.527V31.9682H175.692V22.527C175.692 20.7092 176.898 20.0981 178.505 19.9728L179.108 19.9257V18.4136H167.637V19.9257L168.288 19.9728C169.894 20.0589 171.1 20.7092 171.1 22.527V44.5827C171.1 46.4004 169.894 47.0507 168.288 47.1369H167.637V48.649H179.108V47.1996H178.505C176.898 47.0664 175.692 46.4631 175.692 44.6453V34.3031H187.037V44.5827C187.037 46.4004 185.822 47.0507 184.224 47.1369H183.574V48.649H195.044V47.1996H194.441C192.874 47.0664 191.628 46.4631 191.628 44.6453V22.527C191.628 20.7092 192.835 20.0981 194.441 19.9728L195.044 19.9257V18.4136H183.574V19.9257Z" fill="black"/>
<path d="M336.71 26.5619C334.203 26.5619 332.009 28.2073 331.084 31.1533V26.7186L323.813 27.2827V28.7087L324.699 28.7557C326.023 28.8341 326.861 29.4844 326.861 31.31V44.6295C326.861 46.4473 325.952 47.0976 324.511 47.1838H323.86V48.6567H334.124V47.2621L333.513 47.2151C332.04 47.1289 331.163 46.4786 331.163 44.6609V37.3743C331.241 31.9681 333.584 28.5912 336.443 28.5912C336.708 28.5689 336.975 28.6081 337.222 28.706C337.47 28.8038 337.692 28.9576 337.869 29.1553C337.497 29.3459 337.186 29.6373 336.972 29.996C336.757 30.3548 336.647 30.7666 336.655 31.1846C336.669 31.7891 336.915 32.3649 337.343 32.7924C337.771 33.22 338.347 33.4663 338.951 33.4803C339.262 33.4732 339.567 33.4046 339.852 33.2784C340.136 33.1521 340.392 32.9708 340.605 32.7449C340.819 32.5191 340.985 32.2531 341.095 31.9624C341.206 31.6717 341.256 31.3621 341.246 31.0514V30.9731C341.263 30.3787 341.155 29.7875 340.931 29.2366C340.707 28.6858 340.371 28.1875 339.945 27.773C339.519 27.3585 339.011 27.0369 338.455 26.8284C337.898 26.62 337.304 26.5292 336.71 26.5619Z" fill="black"/>
<path d="M350.656 26.4602C344.984 26.4602 341.215 31.8664 341.215 37.7975C341.215 43.7287 344.858 49.1427 351.087 49.1427C355.459 49.1427 357.927 46.1575 358.922 42.7806L357.065 42.2322C356.204 44.5827 354.715 46.3848 351.651 46.3848C348.141 46.3848 345.767 43.0549 345.767 37.7662H359.228V36.5126C359.228 30.9732 355.922 26.4602 350.656 26.4602ZM345.854 35.6821C346.292 31.4825 348.016 28.9282 350.617 28.9282C352.968 28.9282 354.535 31.1377 354.684 35.6821H345.854Z" fill="black"/>
<path d="M320.131 45.1309V33.8249C320.131 29.1944 317.232 26.4678 312.335 26.4678C308.135 26.4678 304.414 29.2335 304.414 32.3989C304.379 33.0078 304.586 33.6057 304.992 34.0612C305.398 34.5167 305.968 34.7924 306.576 34.8278C307.185 34.8631 307.783 34.6551 308.239 34.2495C308.694 33.844 308.97 33.2742 309.005 32.6653V32.4851C309.005 32.0723 308.897 31.6666 308.69 31.309C308.484 30.9514 308.187 30.6544 307.83 30.448C308.289 29.8742 308.878 29.4179 309.548 29.1168C310.219 28.8157 310.951 28.6785 311.685 28.7164C314.341 28.7164 315.931 30.7065 315.931 34.0286V35.0236L309.522 37.6797C305.237 39.4504 303.771 41.0096 303.771 43.8302C303.771 47.0739 306.122 49.1424 309.789 49.1424C311.117 49.1367 312.411 48.7275 313.502 47.9691C314.592 47.2107 315.425 46.1389 315.892 44.8958V45.5461C315.892 47.7556 317.459 49.0876 320.045 49.0876C320.971 49.0954 321.892 48.9633 322.779 48.6958V47.262C320.954 47.4657 320.131 46.7684 320.131 45.1309ZM315.884 40.234C315.673 44.0418 313.769 46.596 311.128 46.596C309.225 46.596 307.994 45.3032 307.994 43.3131C307.995 42.4536 308.262 41.6155 308.759 40.914C309.256 40.2126 309.958 39.6821 310.768 39.3956L315.9 37.1078L315.884 40.234Z" fill="black"/>
<path d="M259.339 43.3526C258.735 45.1703 257.772 46.2986 256.354 46.2986C254.536 46.2986 253.925 44.9666 253.925 43.3918V29.367H259.879V27.1184H253.948V20.4429H251.778C250.994 25.473 248.401 27.2907 245.721 27.847V29.367H249.71V43.8697C249.71 47.2466 251.739 49.1505 254.983 49.1505C258.015 49.1505 260.013 46.941 260.914 43.7835L259.339 43.3526Z" fill="black"/>
<path d="M231.893 45.1309V33.8249C231.893 29.1944 228.994 26.4678 224.058 26.4678C219.858 26.4678 216.136 29.2335 216.136 32.3989C216.105 33.0043 216.315 33.5975 216.719 34.049C217.124 34.5004 217.691 34.7736 218.296 34.8087C218.901 34.8439 219.495 34.6383 219.95 34.2367C220.404 33.8352 220.681 33.2702 220.72 32.6653C220.724 32.6053 220.724 32.5451 220.72 32.4851C220.721 32.0828 220.617 31.6872 220.421 31.336C220.225 30.9848 219.942 30.6898 219.599 30.4793C220.057 29.9041 220.646 29.4467 221.317 29.1455C221.988 28.8442 222.72 28.7079 223.454 28.7478C226.103 28.7478 227.693 30.7379 227.693 34.0599V35.055L221.284 37.7111C216.998 39.4426 215.533 41.0018 215.533 43.7989C215.533 47.0426 217.884 49.1032 221.55 49.1032C222.878 49.1003 224.173 48.6932 225.263 47.9359C226.353 47.1787 227.188 46.1074 227.654 44.8645V45.5148C227.654 47.7243 229.221 49.0562 231.814 49.0562C232.738 49.0648 233.658 48.9299 234.541 48.6566V47.262C232.715 47.4657 231.893 46.7684 231.893 45.1309ZM227.646 40.234C227.434 44.0418 225.523 46.596 222.882 46.596C220.978 46.596 219.748 45.3032 219.748 43.3131C219.748 42.4543 220.013 41.6164 220.508 40.9147C221.003 40.2132 221.705 39.6825 222.514 39.3956L227.654 37.1078L227.646 40.234Z" fill="black"/>
<path d="M295.145 46.4239C291.643 46.4239 289.261 43.0941 289.261 37.8054C289.261 32.5167 291.611 29.0223 295.106 29.0223C295.764 28.9747 296.424 29.0816 297.034 29.3347C297.643 29.5877 298.185 29.9798 298.616 30.4796C298.285 30.6956 298.011 30.9905 297.821 31.3377C297.631 31.685 297.53 32.0739 297.527 32.4697C297.541 33.0742 297.787 33.6501 298.215 34.0775C298.643 34.5051 299.218 34.7514 299.823 34.7654C300.141 34.7587 300.455 34.6875 300.745 34.556C301.035 34.4243 301.295 34.2353 301.509 34.0001C301.724 33.7649 301.889 33.4884 301.994 33.1876C302.098 32.8869 302.141 32.568 302.118 32.2503C302.118 29.6569 299.517 26.4524 294.894 26.4524C288.438 26.4524 284.709 31.8664 284.709 37.7897C284.709 43.713 288.344 49.1349 294.581 49.1349C298.867 49.1349 301.288 46.2829 302.244 43.0314L300.387 42.4751C299.564 44.6924 298.114 46.4239 295.145 46.4239Z" fill="black"/>
<path d="M242.846 44.6531V17.8494L235.481 18.4918V19.9178L236.437 19.9648C237.761 20.004 238.599 20.7013 238.599 22.5191V44.6452C238.599 46.463 237.691 47.1133 236.249 47.1995L235.606 47.2465V48.7116H245.863V47.2621L245.259 47.2151C243.755 47.1211 242.846 46.4708 242.846 44.6531Z" fill="black"/>
<path d="M280.775 44.6531V32.83C280.775 29.4531 278.699 26.6325 274.578 26.6325C273.131 26.6236 271.72 27.0892 270.563 27.958C269.405 28.8268 268.565 30.051 268.169 31.4432V17.8494L260.812 18.4918V19.9178L261.768 19.9648C263.092 20.004 263.93 20.7013 263.93 22.5191V44.6452C263.93 46.463 263.045 47.1133 261.58 47.1995L260.929 47.2465V48.7116H271.193V47.2621L270.59 47.2151C269.117 47.1289 268.239 46.4786 268.239 44.6609V37.6094C268.326 32.4147 270.59 29.2964 273.215 29.2964C275.252 29.2964 276.592 30.6753 276.592 33.3628V44.6766C276.592 46.4943 275.683 47.1446 274.241 47.2308L273.591 47.2778V48.743H283.776V47.2621L283.173 47.2151C281.661 47.1211 280.775 46.4708 280.775 44.6531Z" fill="black"/>
<path d="M205.308 26.4602C199.636 26.4602 195.906 31.8664 195.906 37.7975C195.906 43.7287 199.542 49.1427 205.778 49.1427C210.15 49.1427 212.618 46.1575 213.613 42.7806L211.709 42.2322C210.824 44.5827 209.359 46.3848 206.303 46.3848C202.793 46.3848 200.411 43.0549 200.411 37.7662H213.88V36.5126C213.88 30.9732 210.589 26.4602 205.308 26.4602ZM200.505 35.6899C200.96 31.4903 202.668 28.9126 205.261 28.9126C207.612 28.9126 209.179 31.1221 209.328 35.6664L200.505 35.6899Z" fill="black"/>
</g>
<defs>
<clipPath id="clip0_51_538">
<rect width="38" height="66" fill="white" transform="translate(0 0.5)"/>
</clipPath>
</defs>
</svg>
